<svg width="324" height="389" viewBox="0 0 324 389" fill="none" xmlns="http://www.w3.org/2000/svg">
<g opacity="0.06">
<path d="M323.537 255.04V365.935C323.537 371.851 321.167 377.524 316.948 381.706C312.729 385.889 307.006 388.239 301.04 388.239H112.259C105.037 388.233 98.1123 385.385 93.0055 380.322C87.8987 375.259 85.0267 368.394 85.02 361.234V335.055C85.0267 327.897 87.8995 321.034 93.007 315.975C98.1146 310.916 105.039 308.075 112.259 308.075H216.902C224.124 308.068 231.048 305.221 236.155 300.158C241.262 295.095 244.134 288.23 244.141 281.07V255.04C244.137 251.495 244.839 247.984 246.205 244.708C247.571 241.431 249.575 238.454 252.102 235.946C254.63 233.438 257.631 231.449 260.934 230.091C264.238 228.734 267.778 228.035 271.354 228.035H296.399C303.606 228.062 310.508 230.918 315.595 235.98C320.681 241.042 323.537 247.895 323.537 255.04Z" fill="#FA5424"/>
<path d="M319.583 38.5321V121.672C319.587 126.731 318.584 131.741 316.634 136.416C314.684 141.091 311.823 145.338 308.216 148.917C304.609 152.495 300.326 155.334 295.612 157.271C290.898 159.207 285.845 160.204 280.743 160.204H278.952C268.644 160.204 258.758 156.144 251.47 148.918C244.181 141.692 240.086 131.891 240.086 121.672V118.622C240.096 113.557 239.099 108.541 237.152 103.859C235.205 99.1768 232.345 94.9213 228.738 91.3357C225.131 87.75 220.846 84.9046 216.128 82.962C211.411 81.0194 206.354 80.0179 201.245 80.0146H119.957C114.847 80.0146 109.787 81.0137 105.067 82.9548C100.346 84.8959 96.0583 87.7409 92.4483 91.3268C88.8382 94.9128 85.977 99.1694 84.0282 103.853C82.0795 108.537 81.0816 113.555 81.0915 118.622V121.672C81.0915 126.732 80.0862 131.743 78.133 136.418C76.1798 141.093 73.317 145.34 69.7079 148.918C66.0989 152.496 61.8144 155.335 57.0989 157.271C52.3835 159.207 47.3296 160.204 42.2256 160.204H40.3592C30.0689 160.178 20.2091 156.106 12.9421 148.883C5.67514 141.66 1.5942 131.874 1.59424 121.672V38.5321C1.5942 28.33 5.67514 18.5444 12.9421 11.3211C20.2091 4.09785 30.0689 0.0265546 40.3592 7.30878e-05H280.667C285.776 -0.00979532 290.837 0.979764 295.56 2.91207C300.282 4.84437 304.574 7.68144 308.189 11.2608C311.804 14.8401 314.672 19.0914 316.627 23.771C318.582 28.4507 319.587 33.4668 319.583 38.5321Z" fill="#FA5424"/>
<path d="M202.2 147.881H118.97C98.0483 147.881 81.0879 164.695 81.0879 185.437V190.413C81.0879 211.155 98.0483 227.97 118.97 227.97H202.2C223.122 227.97 240.082 211.155 240.082 190.413V185.437C240.082 164.695 223.122 147.881 202.2 147.881Z" fill="#FA5424"/>
<path d="M50.0389 227.992H29.4584C13.189 227.992 0 241.068 0 257.198V278.902C0 295.031 13.189 308.107 29.4584 308.107H50.0389C66.3083 308.107 79.4973 295.031 79.4973 278.902V257.198C79.4973 241.068 66.3083 227.992 50.0389 227.992Z" fill="#FA5424"/>
</g>
</svg>
