<svg width="185" height="424" viewBox="0 0 185 424" fill="none" xmlns="http://www.w3.org/2000/svg">
<g opacity="0.06">
<path d="M153.19 222.305L179.634 324.619C181.044 330.077 180.188 335.882 177.254 340.757C174.319 345.633 169.546 349.179 163.986 350.617L-11.9517 396.089C-18.6841 397.823 -25.8164 396.864 -31.7831 393.422C-37.7498 389.981 -42.0634 384.339 -43.777 377.735L-50.0198 353.581C-51.7204 346.975 -50.6795 339.952 -47.1258 334.054C-43.5721 328.157 -37.7963 323.867 -31.0676 322.128L66.4559 296.922C73.1852 295.176 78.9596 290.881 82.5117 284.98C86.0637 279.079 87.1033 272.053 85.4021 265.445L79.1951 241.43C78.3467 238.16 78.1631 234.752 78.6551 231.4C79.147 228.048 80.3048 224.818 82.0621 221.896C83.8195 218.973 86.142 216.415 88.8969 214.366C91.6519 212.318 94.7852 210.821 98.1178 209.96L121.459 203.927C128.181 202.215 135.295 203.189 141.243 206.633C147.19 210.078 151.486 215.713 153.19 222.305Z" fill="#FA5424"/>
<path d="M97.8769 23.503L117.702 100.21C118.912 104.876 119.172 109.74 118.469 114.523C117.766 119.306 116.114 123.914 113.605 128.084C111.097 132.255 107.782 135.905 103.851 138.828C99.9194 141.75 95.4481 143.887 90.6925 145.116L89.0236 145.547C79.417 148.03 69.2359 146.666 60.7198 141.754C52.2038 136.843 46.0505 128.787 43.6136 119.359L42.8862 116.544C41.6878 111.869 39.5623 107.481 36.6312 103.63C33.7 99.7798 30.0208 96.5422 25.8038 94.103C21.5868 91.6637 16.9149 90.0705 12.0552 89.4146C7.19544 88.7587 2.24325 89.0528 -2.51819 90.2802L-78.2758 109.86C-83.0385 111.091 -87.5161 113.232 -91.4525 116.16C-95.3888 119.088 -98.7066 122.746 -101.216 126.924C-103.725 131.102 -105.377 135.718 -106.076 140.509C-106.775 145.299 -106.509 150.17 -105.291 154.842L-104.564 157.656C-103.357 162.325 -103.099 167.19 -103.805 171.974C-104.51 176.757 -106.166 181.366 -108.676 185.536C-111.186 189.707 -114.502 193.357 -118.435 196.28C-122.368 199.202 -126.841 201.339 -131.597 202.569L-133.337 203.018C-142.933 205.472 -153.093 204.091 -161.588 199.177C-170.083 194.263 -176.22 186.218 -178.653 176.805L-198.478 100.099C-200.911 90.686 -199.441 80.6746 -194.391 72.2598C-189.341 63.845 -181.123 57.7138 -171.539 55.2106L52.4199 -2.67343C57.179 -3.91319 62.1316 -4.21924 66.9938 -3.57406C71.856 -2.92887 76.5324 -1.34511 80.755 1.08648C84.9776 3.51808 88.6635 6.74973 91.6016 10.5963C94.5396 14.4429 96.6721 18.8289 97.8769 23.503Z" fill="#FA5424"/>
<path d="M14.5551 152.665L-63.0124 172.713C-82.5108 177.752 -94.3077 197.351 -89.3616 216.488L-88.1751 221.079C-83.2289 240.216 -63.4127 251.644 -43.9143 246.605L33.6532 226.557C53.1516 221.517 64.9486 201.918 60.0025 182.781L58.8159 178.191C53.8698 159.054 34.0536 147.625 14.5551 152.665Z" fill="#FA5424"/>
</g>
</svg>
