<svg width="23" height="27" viewBox="0 0 23 27" fill="none" xmlns="http://www.w3.org/2000/svg">
<path d="M22.4995 17.7369V25.449C22.4995 25.8603 22.3346 26.2549 22.0412 26.5458C21.7478 26.8367 21.3499 27.0001 20.9349 27.0001H7.8064C7.30415 26.9996 6.8226 26.8016 6.46745 26.4495C6.1123 26.0974 5.91257 25.62 5.91211 25.1221V23.3014C5.91257 22.8036 6.11236 22.3264 6.46756 21.9746C6.82275 21.6228 7.30431 21.4251 7.8064 21.4251H15.0837C15.5859 21.4247 16.0675 21.2267 16.4226 20.8746C16.7778 20.5225 16.9775 20.0451 16.978 19.5471V17.7369C16.9777 17.4904 17.0265 17.2462 17.1215 17.0184C17.2165 16.7905 17.3559 16.5835 17.5316 16.4091C17.7074 16.2346 17.9161 16.0963 18.1458 16.0019C18.3756 15.9075 18.6218 15.8589 18.8705 15.8589H20.6122C21.1134 15.8607 21.5934 16.0594 21.9471 16.4114C22.3009 16.7634 22.4995 17.24 22.4995 17.7369Z" fill="#FA5424"/>
<path d="M22.2255 2.67966V8.46153C22.2257 8.81335 22.156 9.16176 22.0204 9.48686C21.8847 9.81196 21.6858 10.1074 21.4349 10.3562C21.1841 10.6051 20.8863 10.8025 20.5584 10.9372C20.2306 11.0719 19.8792 11.1412 19.5243 11.1412H19.3998C18.683 11.1412 17.9955 10.8589 17.4886 10.3563C16.9817 9.8538 16.6969 9.17222 16.6969 8.46153V8.24939C16.6976 7.8972 16.6283 7.54833 16.4929 7.22273C16.3575 6.89713 16.1586 6.60118 15.9078 6.35182C15.6569 6.10246 15.3589 5.90458 15.0308 5.76949C14.7028 5.63439 14.3511 5.56474 13.9958 5.56451H8.34274C7.98735 5.56451 7.63545 5.634 7.30718 5.76899C6.97891 5.90398 6.68071 6.10183 6.42965 6.35121C6.1786 6.60059 5.97962 6.89661 5.8441 7.22232C5.70857 7.54804 5.63917 7.89705 5.63986 8.24939V8.46153C5.63986 8.81343 5.56995 9.16188 5.43412 9.48699C5.29829 9.8121 5.09919 10.1075 4.84821 10.3563C4.59722 10.6052 4.29926 10.8025 3.97133 10.9372C3.6434 11.0719 3.29193 11.1412 2.93699 11.1412H2.80719C2.09156 11.1393 1.40587 10.8562 0.900501 10.3539C0.395129 9.85155 0.111326 9.17102 0.111328 8.46153V2.67966C0.111326 1.97018 0.395129 1.28965 0.900501 0.787314C1.40587 0.28498 2.09156 0.00184671 2.80719 5.08279e-06H19.5191C19.8744 -0.000681203 20.2263 0.0681364 20.5548 0.202516C20.8832 0.336895 21.1817 0.534196 21.4331 0.783117C21.6845 1.03204 21.8839 1.32769 22.0199 1.65313C22.1558 1.97857 22.2257 2.32741 22.2255 2.67966Z" fill="#FA5424"/>
<path d="M14.0613 10.2839H8.27314C6.81817 10.2839 5.63867 11.4533 5.63867 12.8958V13.2418C5.63867 14.6843 6.81817 15.8537 8.27314 15.8537H14.0613C15.5162 15.8537 16.6957 14.6843 16.6957 13.2418V12.8958C16.6957 11.4533 15.5162 10.2839 14.0613 10.2839Z" fill="#FA5424"/>
<path d="M3.47989 15.8552H2.04865C0.91721 15.8552 0 16.7646 0 17.8863V19.3956C0 20.5174 0.91721 21.4267 2.04865 21.4267H3.47989C4.61133 21.4267 5.52854 20.5174 5.52854 19.3956V17.8863C5.52854 16.7646 4.61133 15.8552 3.47989 15.8552Z" fill="#FA5424"/>
</svg>
