<svg width="40" height="40" viewBox="0 0 40 40" fill="none" xmlns="http://www.w3.org/2000/svg">
<path d="M0 20C0 8.95431 8.95431 0 20 0C31.0457 0 40 8.95431 40 20C40 31.0457 31.0457 40 20 40C8.95431 40 0 31.0457 0 20Z" fill="#FA5424"/>
<path d="M18.1069 24.7733C17.8402 24.7733 17.5869 24.6666 17.4002 24.48L13.6269 20.7066C13.2402 20.32 13.2402 19.68 13.6269 19.2933C14.0136 18.9066 14.6536 18.9066 15.0402 19.2933L18.1069 22.36L24.9602 15.5066C25.3469 15.12 25.9869 15.12 26.3736 15.5066C26.7602 15.8933 26.7602 16.5333 26.3736 16.92L18.8136 24.48C18.6269 24.6666 18.3736 24.7733 18.1069 24.7733Z" fill="white"/>
</svg>
