<svg width="20" height="20" viewBox="0 0 20 20" fill="none" xmlns="http://www.w3.org/2000/svg">
<path opacity="0.5" d="M9.99984 18.3334C14.6022 18.3334 18.3332 14.6025 18.3332 10.0001C18.3332 5.39771 14.6022 1.66675 9.99984 1.66675C5.39746 1.66675 1.6665 5.39771 1.6665 10.0001C1.6665 14.6025 5.39746 18.3334 9.99984 18.3334Z" fill="#1C274C"/>
<path d="M11.2751 7.05806C11.031 6.81398 10.6353 6.81398 10.3912 7.05806C10.1472 7.30214 10.1472 7.69786 10.3912 7.94194L11.8243 9.375H6.6665C6.32133 9.375 6.0415 9.65482 6.0415 10C6.0415 10.3452 6.32133 10.625 6.6665 10.625H11.8243L10.3912 12.0581C10.1472 12.3021 10.1472 12.6979 10.3912 12.9419C10.6353 13.186 11.031 13.186 11.2751 12.9419L13.7751 10.4419C14.0192 10.1979 14.0192 9.80214 13.7751 9.55806L11.2751 7.05806Z" fill="#1C274C"/>
</svg>
