<svg width="20" height="20" viewBox="0 0 20 20" fill="none" xmlns="http://www.w3.org/2000/svg">
<path opacity="0.5" d="M9.99935 18.3334C14.6017 18.3334 18.3327 14.6025 18.3327 10.0001C18.3327 5.39771 14.6017 1.66675 9.99935 1.66675C5.39698 1.66675 1.66602 5.39771 1.66602 10.0001C1.66602 14.6025 5.39698 18.3334 9.99935 18.3334Z" fill="white"/>
<path d="M8.75 6.875C8.40482 6.875 8.125 7.15482 8.125 7.5C8.125 7.84518 8.40482 8.125 8.75 8.125H10.9911L7.05806 12.0581C6.81398 12.3021 6.81398 12.6979 7.05806 12.9419C7.30214 13.186 7.69786 13.186 7.94194 12.9419L11.875 9.00888V11.25C11.875 11.5952 12.1548 11.875 12.5 11.875C12.8452 11.875 13.125 11.5952 13.125 11.25V7.5C13.125 7.15482 12.8452 6.875 12.5 6.875H8.75Z" fill="white"/>
</svg>
