<svg width="14" height="14" viewBox="0 0 14 14" fill="none" xmlns="http://www.w3.org/2000/svg">
<path d="M6.55203 13.8239C6.42003 13.0439 6.07203 12.2039 5.50803 11.3039C4.94403 10.3919 4.14003 9.54587 3.09603 8.76587C2.06403 7.98587 1.03203 7.48787 3.12999e-05 7.27187V6.51587C1.02003 6.27587 1.99803 5.83187 2.93403 5.18387C3.88203 4.52387 4.67403 3.73187 5.31003 2.80787C5.95803 1.85987 6.37203 0.92387 6.55203 -0.000129104H7.30803C7.41603 0.59987 7.63203 1.21787 7.95603 1.85387C8.28003 2.47787 8.69403 3.07787 9.19803 3.65387C9.71403 4.21787 10.29 4.72787 10.926 5.18387C11.874 5.85587 12.84 6.29987 13.824 6.51587V7.27187C13.164 7.40387 12.48 7.67387 11.772 8.08187C11.076 8.48987 10.428 8.97587 9.82803 9.53987C9.22803 10.0919 8.73603 10.6739 8.35203 11.2859C7.78803 12.1859 7.44003 13.0319 7.30803 13.8239H6.55203Z" fill="#FF4F1F"/>
</svg>
